<svg xmlns="http://www.w3.org/2000/svg" viewBox="0 0 64 64" width="256" height="256" aria-label="AlertaForestal">
  <defs>
    <linearGradient id="af-circle" gradientUnits="userSpaceOnUse"
      x1="0.05" y1="-0.05" x2="63.95" y2="64.05">
      <stop offset="0" stop-color="#ff8a28" />
      <stop offset="1" stop-color="#e72619" />
    </linearGradient>
    <linearGradient id="af-pin" gradientUnits="userSpaceOnUse"
      x1="13.67" y1="9.19" x2="50.52" y2="57.29">
      <stop offset="0" stop-color="#2e2d2e" />
      <stop offset="1" stop-color="#0d1119" />
    </linearGradient>
    <linearGradient id="af-flame" gradientUnits="userSpaceOnUse"
      x1="22.05" y1="13.67" x2="42.05" y2="42.43">
      <stop offset="0" stop-color="#ff9c27" />
      <stop offset="1" stop-color="#ed2b18" />
    </linearGradient>
  </defs>
  <circle cx="32" cy="32" r="32" fill="url(#af-circle)"/>
  <path fill="url(#af-pin)" d="M 32.05 57.33 C 30.38 55.70 28.45 53.90 27.05 52.43 C 25.64 50.96 24.83 50.00 23.62 48.52 C 22.41 47.05 20.86 45.03 19.81 43.57 C 18.76 42.11 18.08 41.03 17.33 39.76 C 16.59 38.49 15.87 37.17 15.33 35.95 C 14.79 34.73 14.38 33.51 14.10 32.43 C 13.81 31.35 13.70 30.48 13.62 29.48 C 13.54 28.48 13.51 27.54 13.62 26.43 C 13.73 25.32 13.95 23.97 14.29 22.81 C 14.62 21.65 15.02 20.60 15.62 19.48 C 16.22 18.35 17.10 17.04 17.90 16.05 C 18.71 15.06 19.45 14.33 20.43 13.52 C 21.40 12.72 22.62 11.86 23.76 11.24 C 24.90 10.62 26.10 10.16 27.29 9.81 C 28.48 9.46 29.83 9.25 30.90 9.14 C 31.98 9.03 32.54 8.98 33.76 9.14 C 34.98 9.30 37.02 9.71 38.24 10.10 C 39.46 10.48 40.25 10.95 41.10 11.43 C 41.94 11.90 42.50 12.29 43.29 12.95 C 44.07 13.61 45.07 14.55 45.81 15.38 C 46.55 16.21 47.13 16.98 47.71 17.95 C 48.30 18.92 48.90 20.08 49.33 21.19 C 49.76 22.30 50.08 23.40 50.29 24.62 C 50.49 25.84 50.57 27.43 50.57 28.52 C 50.57 29.62 50.49 30.17 50.29 31.19 C 50.08 32.21 49.78 33.43 49.33 34.62 C 48.89 35.81 48.24 37.16 47.62 38.33 C 47.00 39.51 46.32 40.59 45.62 41.67 C 44.92 42.75 44.43 43.49 43.43 44.81 C 42.43 46.13 41.05 47.92 39.62 49.57 C 38.19 51.22 36.12 53.42 34.86 54.71 C 33.60 56.01 32.98 56.46 32.05 57.33 Z"/>
  <path fill="url(#af-flame)" d="M 32.71 42.48 C 31.98 42.51 31.11 42.44 30.33 42.29 C 29.56 42.13 28.78 41.87 28.05 41.52 C 27.32 41.17 26.56 40.67 25.95 40.19 C 25.34 39.71 24.79 39.09 24.38 38.62 C 23.98 38.15 23.81 37.89 23.52 37.38 C 23.24 36.87 22.90 36.25 22.67 35.57 C 22.43 34.89 22.21 33.95 22.10 33.29 C 21.98 32.62 22.00 32.10 22.00 31.57 C 22.00 31.05 21.97 30.83 22.10 30.14 C 22.22 29.46 22.48 28.29 22.76 27.48 C 23.05 26.67 23.41 25.97 23.81 25.29 C 24.21 24.60 24.70 23.90 25.14 23.38 C 25.59 22.86 26.03 22.56 26.48 22.14 C 26.41 22.81 26.25 23.60 26.29 24.14 C 26.33 24.69 26.57 25.00 26.71 25.43 C 27.37 24.84 28.04 24.39 28.67 23.67 C 29.29 22.94 30.05 21.83 30.48 21.10 C 30.90 20.37 31.05 19.89 31.24 19.29 C 31.43 18.68 31.58 18.42 31.62 17.48 C 31.66 16.53 31.52 14.90 31.48 13.62 C 32.16 14.21 32.96 14.79 33.52 15.38 C 34.09 15.98 34.52 16.67 34.86 17.19 C 35.19 17.71 35.32 17.92 35.52 18.52 C 35.73 19.13 36.00 20.03 36.10 20.81 C 36.19 21.59 36.14 22.56 36.10 23.19 C 36.05 23.83 35.92 24.19 35.81 24.62 C 35.70 25.05 35.65 25.27 35.43 25.76 C 35.21 26.25 34.78 27.08 34.48 27.57 C 34.17 28.06 33.81 28.38 33.62 28.71 C 33.43 29.05 33.38 29.29 33.33 29.57 C 33.29 29.86 33.29 30.16 33.33 30.43 C 33.38 30.70 33.50 30.98 33.62 31.19 C 33.74 31.40 33.87 31.56 34.05 31.71 C 34.23 31.87 34.35 32.02 34.71 32.10 C 35.08 32.17 35.79 32.27 36.24 32.19 C 36.68 32.11 37.07 31.83 37.38 31.62 C 37.69 31.40 37.87 31.21 38.10 30.90 C 38.33 30.60 38.57 30.27 38.76 29.76 C 38.95 29.25 39.18 28.67 39.24 27.86 C 39.29 27.04 39.14 25.86 39.10 24.86 C 39.49 25.32 39.91 25.69 40.29 26.24 C 40.66 26.79 41.06 27.51 41.33 28.14 C 41.60 28.78 41.78 29.49 41.90 30.05 C 42.03 30.60 42.08 30.92 42.10 31.48 C 42.11 32.03 42.08 32.76 42.00 33.38 C 41.92 34.00 41.79 34.62 41.62 35.19 C 41.44 35.76 41.27 36.22 40.95 36.81 C 40.63 37.40 40.17 38.15 39.71 38.71 C 39.26 39.28 38.71 39.79 38.24 40.19 C 37.77 40.60 37.49 40.83 36.90 41.14 C 36.32 41.46 35.41 41.87 34.71 42.10 C 34.02 42.32 33.44 42.44 32.71 42.48 Z"/>
</svg>
